<?xml version="1.0" encoding="UTF-8"?>
<svg id="Abertura_de_Capítulo" xmlns="http://www.w3.org/2000/svg" version="1.1" viewBox="0 0 1209.98 198.9">
  <!-- Generator: Adobe Illustrator 30.1.0, SVG Export Plug-In . SVG Version: 2.1.1 Build 136)  -->
  <defs>
    <style>
      .st0 {
        font-family: Neris-Black, Neris;
        font-size: 143.99px;
        letter-spacing: -.03em;
      }

      .st0, .st1 {
        display: none;
        font-weight: 800;
      }

      .st2, .st1 {
        fill: #fff;
      }

      .st1 {
        font-family: Neris-BlackItalic, Neris;
        font-size: 75.65px;
        font-style: italic;
        letter-spacing: -.02em;
      }
    </style>
  </defs>
  <g>
    <path class="st2" d="M116.56,0s-48.14,9.58-68.3,44.23c-5.99,10.3-10.65,20.58-14.24,29.96L3.95,102.13s20.54-14.58,50.76,2.99c31.59,18.38,28.72,43.24,28.72,43.24l9.22-39.75c6.48-7.82,13.21-17.02,19.23-27.37C132.03,46.59,116.56,0,116.56,0M85.9,69.42c-8.92.2-16.31-6.86-16.51-15.77-.2-8.92,6.86-16.31,15.77-16.51,8.92-.2,16.31,6.86,16.51,15.78.2,8.91-6.86,16.31-15.77,16.51"/>
    <path class="st2" d="M50.7,113.19c-15.7-9.13-35.91-3.78-45.03,11.92-2.74,4.71-4.28,10.07-4.45,15.52L0,196.8c-.02.75.38,1.45,1.02,1.82.65.38,1.45.37,2.09-.01l48.23-28.85c4.63-2.83,8.53-6.82,11.27-11.54,9.13-15.7,3.78-35.9-11.92-45.03M34.98,155.05c-8.08.07-14.69-6.43-14.75-14.51-.07-8.08,6.43-14.69,14.51-14.75,8.08-.07,14.69,6.43,14.75,14.51.07,8.08-6.43,14.69-14.51,14.75"/>
  </g>
  <g>
    <g>
      <path class="st2" d="M222.55,99.86c0,22.8-13.42,37.08-35.06,37.08s-35.2-14.28-35.2-37.08,13.42-36.94,35.2-36.94,35.06,14.43,35.06,36.94M174.65,99.86c0,10.53,4.91,16.88,12.84,16.88s12.7-6.35,12.7-16.88-4.9-16.59-12.7-16.59-12.84,6.2-12.84,16.59"/>
      <path class="st2" d="M246.08,68.84c1.44,2.16,2.31,2.02,4.47.14,5.77-4.9,12.41-6.06,16.74-6.06,17.03,0,27.41,9.81,27.41,26.69v43.86c0,1.15-.72,1.88-1.88,1.88h-19.19c-1.15,0-1.88-.72-1.88-1.88v-40.98c0-5.92-3.03-9.23-8.08-9.23-6.92,0-10.82,5.05-10.82,14.72v35.49c0,1.15-.72,1.88-1.88,1.88h-19.19c-1.15,0-1.87-.72-1.87-1.88v-67.09c0-1.15.72-1.88,1.87-1.88h10.24c1.01,0,1.73.43,2.17,1.3l1.88,3.03Z"/>
      <path class="st2" d="M351.4,135.35c-5.05,1.15-9.95,1.59-13.7,1.59-23.66,0-36.5-14.28-36.5-36.94s13.13-37.08,35.78-37.08c18.04,0,29.15,9.52,29.15,24.38,0,11.54-8.08,18.18-24.67,20.49l-16.88,2.45c2.74,5.05,6.35,7.21,13.13,7.21,3.03,0,7.21-.58,9.23-1.01l8.66-1.87c1.15-.29,1.88.14,2.17,1.3l4.04,15c.29,1.3-.29,2.02-1.44,2.31l-8.95,2.16ZM338.13,93.22c4.47-.43,6.64-2.45,6.64-5.63,0-3.46-2.89-5.19-8.66-5.19-6.2,0-12.55,4.04-12.98,13.13l15.01-2.31Z"/>
    </g>
    <g>
      <path class="st2" d="M417.39,106.02c-13.99-3.18-20.34-9.52-20.34-20.49,0-14.57,10.39-23.08,28.14-23.08,6.64,0,13.56,1.15,18.76,2.31l7.21,1.73c1.15.29,1.73,1.15,1.3,2.31l-4.33,15c-.29,1.15-1.01,1.59-2.17,1.3l-7.36-1.73c-3.9-.87-9.96-1.44-13.42-1.44-3.75,0-5.92,1.3-5.92,3.61,0,1.45,1.3,3.03,3.75,3.75l12.27,2.89c13.85,3.32,20.05,9.81,20.05,21.06,0,14.57-10.39,23.23-27.99,23.23-6.35,0-14-.58-22.08-2.6l-7.65-1.88c-1.15-.29-1.73-1.15-1.3-2.31l4.33-15.29c.29-1.16,1.01-1.59,2.17-1.3l6.78,1.73c6.2,1.59,15,2.31,17.75,2.31,3.61,0,5.63-1.44,5.63-3.9,0-1.87-1.3-3.61-4.19-4.33l-11.4-2.88Z"/>
      <path class="st2" d="M506.12,64.04c1.15,0,1.87.72,1.87,1.88v16.3c0,1.15-.72,1.88-1.87,1.88h-16.3v26.26c0,3.75,1.44,5.92,3.75,5.92,1.3,0,2.45-.15,3.61-.58,1.15-.43,2.02-.29,2.6.86l6.78,13.85c.43,1.01.29,2.02-.58,2.6-3.46,2.31-8.08,3.46-12.41,3.46-16.74,0-26.55-9.67-26.55-26.12v-26.26h-7.5c-1.15,0-1.88-.72-1.88-1.88v-16.3c0-1.15.72-1.88,1.88-1.88h7.5v-15.73c0-1.01.43-1.73,1.59-2.16l19.04-6.35c1.3-.43,2.16.14,2.16,1.59v22.65h16.3Z"/>
      <path class="st2" d="M523.58,64.76c5.34-1.44,10.39-2.31,15.87-2.31,21.93,0,34.77,10.39,34.77,27.99v42.56c0,1.15-.72,1.88-1.88,1.88h-10.82c-1.15,0-1.73-.43-2.31-1.3l-1.3-2.6c-.86-1.73-2.17-2.02-4.62,0-3.75,3.32-9.52,5.48-15.58,5.48-17.17,0-27.41-8.51-27.41-23.09,0-13.42,10.68-21.35,28.57-21.35h13.56v-.29c-.58-6.2-5.92-9.81-14.14-9.81-2.88,0-6.2.58-9.38,1.44l-5.48,1.59c-1.15.29-1.88-.14-2.31-1.3l-4.48-15c-.43-1.3,0-2.02,1.3-2.31l5.63-1.59ZM538.88,106.31c-4.19,0-7.22,2.31-7.22,5.48,0,4.04,3.03,6.35,8.22,6.35,7.5,0,11.69-3.61,12.55-11.54v-.29h-13.56Z"/>
      <path class="st2" d="M628.62,64.04c1.15,0,1.87.72,1.87,1.88v16.3c0,1.15-.72,1.88-1.87,1.88h-16.31v26.26c0,3.75,1.44,5.92,3.75,5.92,1.3,0,2.46-.15,3.61-.58,1.15-.43,2.02-.29,2.59.86l6.78,13.85c.43,1.01.29,2.02-.58,2.6-3.46,2.31-8.08,3.46-12.41,3.46-16.73,0-26.55-9.67-26.55-26.12v-26.26h-7.5c-1.15,0-1.88-.72-1.88-1.88v-16.3c0-1.15.72-1.88,1.88-1.88h7.5v-15.73c0-1.01.44-1.73,1.59-2.16l19.05-6.35c1.3-.43,2.16.14,2.16,1.59v22.65h16.31Z"/>
      <path class="st2" d="M666.28,133c0,1.15-.72,1.88-1.88,1.88h-19.04c-1.15,0-1.88-.72-1.88-1.88v-48.91h-7.5c-1.15,0-1.88-.72-1.88-1.88v-16.3c0-1.15.72-1.88,1.88-1.88h28.42c1.15,0,1.88.72,1.88,1.88v67.09ZM665.85,41.53c0,8.22-4.62,13.27-12.84,13.27s-12.84-5.05-12.84-13.27,4.76-13.13,12.84-13.13,12.84,4.76,12.84,13.13"/>
      <path class="st2" d="M743.91,99.38c0,22.8-13.42,37.08-35.06,37.08s-35.2-14.29-35.2-37.08,13.42-36.94,35.2-36.94,35.06,14.43,35.06,36.94M696.01,99.38c0,10.53,4.91,16.88,12.84,16.88s12.7-6.35,12.7-16.88-4.91-16.59-12.7-16.59-12.84,6.2-12.84,16.59"/>
      <path class="st2" d="M767.43,68.37c1.44,2.16,2.31,2.02,4.47.14,5.77-4.9,12.41-6.06,16.74-6.06,17.03,0,27.42,9.81,27.42,26.69v43.86c0,1.15-.72,1.88-1.88,1.88h-19.19c-1.15,0-1.88-.72-1.88-1.88v-40.98c0-5.92-3.03-9.23-8.08-9.23-6.93,0-10.82,5.05-10.82,14.72v35.49c0,1.15-.72,1.88-1.88,1.88h-19.19c-1.15,0-1.88-.72-1.88-1.88v-67.09c0-1.15.72-1.88,1.88-1.88h10.24c1.01,0,1.73.43,2.17,1.3l1.88,3.03Z"/>
    </g>
    <g>
      <path class="st2" d="M868.33,67.95c1.46,2.19,2.34,2.05,4.68,0,5.7-4.68,11.84-5.99,16.08-5.99,6.14,0,13.01,2.19,17.68,6.58,2.78,2.49,4.38,1.75,6.87-.15,6.87-5.55,12.42-6.43,16.66-6.43,17.54,0,27.18,9.94,27.18,27.04v44.43c0,1.17-.73,1.9-1.9,1.9h-19.29c-1.17,0-1.9-.73-1.9-1.9v-41.51c0-5.99-2.19-9.35-7.75-9.35-6.72,0-10.38,5.12-10.38,14.91v35.95c0,1.17-.73,1.9-1.9,1.9h-19.29c-1.17,0-1.9-.73-1.9-1.9v-41.8c0-5.7-2.49-9.06-7.75-9.06-7.02,0-10.23,5.12-10.23,14.91v35.95c0,1.17-.73,1.9-1.9,1.9h-19.44c-1.17,0-1.9-.73-1.9-1.9v-67.96c0-1.17.73-1.9,1.9-1.9h10.38c1.02,0,1.75.44,2.19,1.32l1.9,3.07Z"/>
      <path class="st2" d="M1014.05,135.33c-5.11,1.17-10.09,1.61-13.88,1.61-23.97,0-36.98-14.47-36.98-37.41s13.3-37.56,36.25-37.56c18.27,0,29.52,9.65,29.52,24.7,0,11.69-8.18,18.41-24.99,20.75l-17.1,2.48c2.78,5.12,6.43,7.31,13.3,7.31,3.07,0,7.31-.58,9.35-1.02l8.77-1.9c1.17-.29,1.9.15,2.19,1.32l4.09,15.2c.29,1.32-.29,2.05-1.46,2.34l-9.06,2.19ZM1000.61,92.65c4.53-.44,6.72-2.48,6.72-5.7,0-3.51-2.92-5.26-8.77-5.26-6.28,0-12.71,4.09-13.15,13.3l15.2-2.34Z"/>
      <path class="st2" d="M1101.68,133.43c0,1.17-.73,1.9-1.9,1.9h-10.23c-1.02,0-1.75-.44-2.19-1.32l-2.34-3.51c-.88-1.32-1.9-1.75-3.65,0-5.26,4.68-11.69,6.43-18.56,6.43-19.58,0-31.57-14.47-31.57-37.56s12.86-37.41,34.05-37.41c3.65,0,6.87.44,9.5,1.75l3.8,1.61V30.83c0-1.17.73-1.9,1.9-1.9h19.29c1.17,0,1.9.73,1.9,1.9v102.6ZM1075.96,84.32c-2.49-1.02-5.99-1.75-9.06-1.75-8.18,0-13.01,6.28-13.01,16.81.15,10.52,4.97,17.1,13.3,17.1,7.45,0,11.69-5.85,11.69-13.88v-16.95l-2.92-1.31Z"/>
      <path class="st2" d="M1139.83,133.43c0,1.17-.73,1.9-1.9,1.9h-19.29c-1.17,0-1.9-.73-1.9-1.9v-49.55h-7.6c-1.17,0-1.9-.73-1.9-1.9v-16.52c0-1.17.73-1.9,1.9-1.9h28.79c1.17,0,1.9.73,1.9,1.9v67.96ZM1139.39,40.77c0,8.33-4.68,13.45-13.01,13.45s-13.01-5.12-13.01-13.45,4.82-13.3,13.01-13.3,13.01,4.82,13.01,13.3Z"/>
      <path class="st2" d="M1158.68,64.3c5.41-1.46,10.52-2.34,16.08-2.34,22.21,0,35.22,10.52,35.22,28.35v43.12c0,1.17-.73,1.9-1.9,1.9h-10.96c-1.17,0-1.75-.44-2.34-1.32l-1.32-2.63c-.88-1.75-2.19-2.05-4.68,0-3.8,3.36-9.65,5.55-15.78,5.55-17.39,0-27.77-8.62-27.77-23.38,0-13.59,10.82-21.63,28.94-21.63h13.74v-.29c-.58-6.28-5.99-9.94-14.32-9.94-2.92,0-6.28.58-9.5,1.46l-5.55,1.61c-1.17.29-1.9-.15-2.34-1.32l-4.53-15.2c-.44-1.32,0-2.05,1.32-2.34l5.7-1.61ZM1174.17,106.39c-4.24,0-7.31,2.34-7.31,5.55,0,4.09,3.07,6.43,8.33,6.43,7.6,0,11.84-3.65,12.71-11.69v-.29h-13.74Z"/>
    </g>
  </g>
  <text class="st0" transform="translate(147.39 145.1)"><tspan x="0" y="0">one station media</tspan></text>
  <text class="st1" transform="translate(381.72 205.02)"><tspan x="0" y="0">precision marketing data</tspan></text>
</svg>