<?xml version="1.0" encoding="UTF-8"?>
<svg id="Abertura_de_Capítulo" xmlns="http://www.w3.org/2000/svg" version="1.1" viewBox="0 0 1269.35 257.64">
  <!-- Generator: Adobe Illustrator 30.1.0, SVG Export Plug-In . SVG Version: 2.1.1 Build 136)  -->
  <defs>
    <style>
      .st0 {
        fill: #fff;
      }
    </style>
  </defs>
  <g>
    <path class="st0" d="M136.51,35.38s-48.14,9.58-68.3,44.23c-5.99,10.3-10.65,20.58-14.24,29.96l-30.07,27.94s20.54-14.58,50.76,2.99c31.59,18.38,28.72,43.24,28.72,43.24l9.22-39.75c6.48-7.82,13.21-17.02,19.23-27.37,20.15-34.65,4.68-81.23,4.68-81.23M105.85,104.8c-8.92.2-16.31-6.86-16.51-15.77-.2-8.92,6.86-16.31,15.77-16.51,8.92-.2,16.31,6.86,16.51,15.78.2,8.91-6.86,16.31-15.77,16.51"/>
    <path class="st0" d="M70.65,148.57c-15.7-9.13-35.91-3.78-45.03,11.92-2.74,4.71-4.28,10.07-4.45,15.52l-1.21,56.17c-.02.75.38,1.45,1.02,1.82.65.38,1.45.37,2.09,0l48.23-28.85c4.63-2.83,8.53-6.82,11.27-11.54,9.13-15.7,3.78-35.9-11.92-45.03M54.93,190.44c-8.08.07-14.69-6.43-14.75-14.51-.07-8.08,6.43-14.69,14.51-14.75,8.08-.07,14.69,6.43,14.75,14.51.07,8.08-6.43,14.69-14.51,14.75"/>
  </g>
  <g>
    <path class="st0" d="M242.5,125.98c0,22.8-13.42,37.08-35.06,37.08s-35.2-14.28-35.2-37.08,13.42-36.94,35.2-36.94,35.06,14.43,35.06,36.94M194.6,125.98c0,10.53,4.91,16.88,12.84,16.88s12.7-6.35,12.7-16.88-4.9-16.59-12.7-16.59-12.84,6.2-12.84,16.59"/>
    <path class="st0" d="M266.03,94.96c1.44,2.16,2.31,2.02,4.47.14,5.77-4.9,12.41-6.06,16.74-6.06,17.03,0,27.41,9.81,27.41,26.69v43.86c0,1.15-.72,1.88-1.88,1.88h-19.19c-1.15,0-1.88-.72-1.88-1.88v-40.98c0-5.92-3.03-9.23-8.08-9.23-6.92,0-10.82,5.05-10.82,14.72v35.49c0,1.15-.72,1.88-1.88,1.88h-19.19c-1.15,0-1.87-.72-1.87-1.88v-67.09c0-1.15.72-1.88,1.87-1.88h10.24c1.01,0,1.73.43,2.17,1.3l1.88,3.03h.01Z"/>
    <path class="st0" d="M371.35,161.48c-5.05,1.15-9.95,1.59-13.7,1.59-23.66,0-36.5-14.28-36.5-36.94s13.13-37.08,35.78-37.08c18.04,0,29.15,9.52,29.15,24.38,0,11.54-8.08,18.18-24.67,20.49l-16.88,2.45c2.74,5.05,6.35,7.21,13.13,7.21,3.03,0,7.21-.58,9.23-1.01l8.66-1.87c1.15-.29,1.88.14,2.17,1.3l4.04,15c.29,1.3-.29,2.02-1.44,2.31l-8.95,2.16h-.02ZM358.08,119.35c4.47-.43,6.64-2.45,6.64-5.63,0-3.46-2.89-5.19-8.66-5.19-6.2,0-12.55,4.04-12.98,13.13l15.01-2.31h-.01Z"/>
  </g>
  <g>
    <path class="st0" d="M437.34,132.15c-13.99-3.18-20.34-9.52-20.34-20.49,0-14.57,10.39-23.08,28.14-23.08,6.64,0,13.56,1.15,18.76,2.31l7.21,1.73c1.15.29,1.73,1.15,1.3,2.31l-4.33,15c-.29,1.15-1.01,1.59-2.17,1.3l-7.36-1.73c-3.9-.87-9.96-1.44-13.42-1.44-3.75,0-5.92,1.3-5.92,3.61,0,1.45,1.3,3.03,3.75,3.75l12.27,2.89c13.85,3.32,20.05,9.81,20.05,21.06,0,14.57-10.39,23.23-27.99,23.23-6.35,0-14-.58-22.08-2.6l-7.65-1.88c-1.15-.29-1.73-1.15-1.3-2.31l4.33-15.29c.29-1.16,1.01-1.59,2.17-1.3l6.78,1.73c6.2,1.59,15,2.31,17.75,2.31,3.61,0,5.63-1.44,5.63-3.9,0-1.87-1.3-3.61-4.19-4.33l-11.4-2.88h0Z"/>
    <path class="st0" d="M526.07,90.16c1.15,0,1.87.72,1.87,1.88v16.3c0,1.15-.72,1.88-1.87,1.88h-16.3v26.26c0,3.75,1.44,5.92,3.75,5.92,1.3,0,2.45-.15,3.61-.58,1.15-.43,2.02-.29,2.6.86l6.78,13.85c.43,1.01.29,2.02-.58,2.6-3.46,2.31-8.08,3.46-12.41,3.46-16.74,0-26.55-9.67-26.55-26.12v-26.26h-7.5c-1.15,0-1.88-.72-1.88-1.88v-16.3c0-1.15.72-1.88,1.88-1.88h7.5v-15.73c0-1.01.43-1.73,1.59-2.16l19.04-6.35c1.3-.43,2.16.14,2.16,1.59v22.65h16.31Z"/>
    <path class="st0" d="M543.53,90.89c5.34-1.44,10.39-2.31,15.87-2.31,21.93,0,34.77,10.39,34.77,27.99v42.56c0,1.15-.72,1.88-1.88,1.88h-10.82c-1.15,0-1.73-.43-2.31-1.3l-1.3-2.6c-.86-1.73-2.17-2.02-4.62,0-3.75,3.32-9.52,5.48-15.58,5.48-17.17,0-27.41-8.51-27.41-23.09,0-13.42,10.68-21.35,28.57-21.35h13.56v-.29c-.58-6.2-5.92-9.81-14.14-9.81-2.88,0-6.2.58-9.38,1.44l-5.48,1.59c-1.15.29-1.88-.14-2.31-1.3l-4.48-15c-.43-1.3,0-2.02,1.3-2.31l5.63-1.59h0ZM558.83,132.44c-4.19,0-7.22,2.31-7.22,5.48,0,4.04,3.03,6.35,8.22,6.35,7.5,0,11.69-3.61,12.55-11.54v-.29h-13.56.01Z"/>
    <path class="st0" d="M648.58,90.16c1.15,0,1.87.72,1.87,1.88v16.3c0,1.15-.72,1.88-1.87,1.88h-16.31v26.26c0,3.75,1.44,5.92,3.75,5.92,1.3,0,2.46-.15,3.61-.58,1.15-.43,2.02-.29,2.59.86l6.78,13.85c.43,1.01.29,2.02-.58,2.6-3.46,2.31-8.08,3.46-12.41,3.46-16.73,0-26.55-9.67-26.55-26.12v-26.26h-7.5c-1.15,0-1.88-.72-1.88-1.88v-16.3c0-1.15.72-1.88,1.88-1.88h7.5v-15.73c0-1.01.44-1.73,1.59-2.16l19.05-6.35c1.3-.43,2.16.14,2.16,1.59v22.65h16.32Z"/>
    <path class="st0" d="M686.23,159.13c0,1.15-.72,1.88-1.88,1.88h-19.04c-1.15,0-1.88-.72-1.88-1.88v-48.91h-7.5c-1.15,0-1.88-.72-1.88-1.88v-16.3c0-1.15.72-1.88,1.88-1.88h28.42c1.15,0,1.88.72,1.88,1.88v67.09ZM685.8,67.66c0,8.22-4.62,13.27-12.84,13.27s-12.84-5.05-12.84-13.27,4.76-13.13,12.84-13.13,12.84,4.76,12.84,13.13"/>
    <path class="st0" d="M763.86,125.51c0,22.8-13.42,37.08-35.06,37.08s-35.2-14.29-35.2-37.08,13.42-36.94,35.2-36.94,35.06,14.43,35.06,36.94M715.96,125.51c0,10.53,4.91,16.88,12.84,16.88s12.7-6.35,12.7-16.88-4.91-16.59-12.7-16.59-12.84,6.2-12.84,16.59"/>
    <path class="st0" d="M787.38,94.49c1.44,2.16,2.31,2.02,4.47.14,5.77-4.9,12.41-6.06,16.74-6.06,17.03,0,27.42,9.81,27.42,26.69v43.86c0,1.15-.72,1.88-1.88,1.88h-19.19c-1.15,0-1.88-.72-1.88-1.88v-40.98c0-5.92-3.03-9.23-8.08-9.23-6.93,0-10.82,5.05-10.82,14.72v35.49c0,1.15-.72,1.88-1.88,1.88h-19.19c-1.15,0-1.88-.72-1.88-1.88v-67.09c0-1.15.72-1.88,1.88-1.88h10.24c1.01,0,1.73.43,2.17,1.3l1.88,3.03h0Z"/>
  </g>
  <g>
    <path class="st0" d="M891.53,96.33c1.19,2.68,1.93,2.23,4.61.15,6.4-5.36,12.65-7.29,18.89-7.29,6.85,0,12.05,2.83,16.22,7.74,2.83,2.68,4.17,3.13,7.74.3,7.14-6.25,13.24-8.04,19.49-8.04,16.81,0,25.44,11.16,22.31,28.71l-7.59,43.89c-.15,1.04-.89,1.64-1.94,1.64h-16.66c-1.19,0-1.78-.74-1.64-1.93l7.44-42.7c1.34-7.74-.6-11.6-6.69-11.6-9.67,0-15.92,7.74-18,19.49l-5.95,35.11c-.15,1.04-.9,1.64-1.94,1.64h-16.66c-1.19,0-1.79-.74-1.64-1.93l7.44-42.99c1.34-7.44-.89-11.31-6.69-11.31-9.82,0-15.92,7.74-18,19.49l-5.95,35.11c-.15,1.04-.89,1.64-1.93,1.64h-16.67c-1.19,0-1.78-.74-1.64-1.93l11.9-69.03c.15-1.04.89-1.64,1.93-1.64h8.93c1.04,0,1.78.6,1.94,1.64l.74,3.87v-.03Z"/>
    <path class="st0" d="M1032.42,163.28c-5.06,1.34-9.52,1.78-14.28,1.78-20.38,0-31.24-11.46-31.24-29.9,0-19.64,10.86-45.97,40.91-45.97,16.67,0,26.48,8.04,26.48,21.13,0,11.31-5.06,21.57-26.04,24.55l-21.57,2.98c.45,5.5,4.16,9.22,12.05,9.22,4.61,0,8.18-.45,12.5-1.49l7.73-2.08c1.19-.3,1.94.3,2.09,1.48l1.19,14.14c.15,1.04-.44,1.78-1.48,2.08l-8.33,2.08h0ZM1026.62,120.14c5.8-.89,8.33-3.72,8.33-7.29s-2.83-5.65-8.18-5.65c-8.33,0-15.02,4.61-18.75,15.47l18.6-2.53h0Z"/>
    <path class="st0" d="M1121.83,161.79c-.15,1.04-.89,1.64-1.93,1.64h-8.78c-1.04,0-1.78-.59-1.93-1.64l-.89-4.02c-.74-2.08-1.34-2.38-4.16-.15-6.26,5.21-13.1,7.44-19.79,7.44-17.55,0-27.37-11.16-27.37-29.31,0-19.34,10.56-46.42,40.17-46.57,5.36,0,9.22.74,12.5,2.38l3.72,1.78,6.25-35.7c.15-1.04.89-1.64,1.93-1.64h16.51c1.19,0,1.79.74,1.64,1.94l-17.85,103.84h-.02ZM1107.4,108.98c-2.53-1.19-6.25-1.78-9.52-1.78-15.77,0-21.12,16.81-21.12,26.78,0,8.33,4.02,13.09,11.75,13.09,9.97,0,16.96-7.14,18.89-18.3l3.27-18.3-3.27-1.49Z"/>
    <path class="st0" d="M1159.77,161.79c-.15,1.04-.9,1.64-1.94,1.64h-16.66c-1.19,0-1.79-.74-1.64-1.94l9.23-52.96h-7.29c-1.19,0-1.78-.74-1.64-1.93l2.38-14.14c.15-1.04.89-1.64,1.93-1.64h25.89c1.18,0,1.78.74,1.63,1.93l-11.9,69.03h.01ZM1175.98,64.79c0,8.63-4.76,13.39-12.35,13.39-6.99,0-10.86-3.87-10.86-10.27,0-8.63,4.76-13.39,12.35-13.39,6.99,0,10.86,3.87,10.86,10.26"/>
    <path class="st0" d="M1225.97,154.65c-.45-3.12-1.04-3.57-4.31-.15-5.65,6.55-12.05,10.56-21.28,10.56-16.66,0-26.33-10.27-26.33-27.82,0-20.23,12.05-48.06,44.03-48.06,4.91,0,9.52.74,15.62,2.23l14.88,3.57c1.04.3,1.49,1.04,1.34,2.08l-11.01,64.72c-.14,1.04-.89,1.64-1.93,1.64h-9.23c-1.19,0-1.78-.59-1.78-1.78v-6.99h0ZM1224.64,108.24c-2.53-.74-4.32-1.04-7.44-1.04-16.66,0-23.36,18.3-23.36,28.27,0,7.29,3.87,11.61,10.27,11.61,10.71,0,19.19-12.79,22.61-31.54l1.19-6.25-3.27-1.04h0Z"/>
  </g>
</svg>