<?xml version="1.0" encoding="UTF-8"?>
<svg id="Layer_1" xmlns="http://www.w3.org/2000/svg" version="1.1" xmlns:xlink="http://www.w3.org/1999/xlink" viewBox="0 0 1200 1200">
  <!-- Generator: Adobe Illustrator 30.0.0, SVG Export Plug-In . SVG Version: 2.1.1 Build 123)  -->
  <defs>
    <style>
      .st0 {
        stroke: #c9c9c9;
      }

      .st0, .st1, .st2, .st3, .st4, .st5 {
        fill: none;
      }

      .st0, .st3, .st4, .st5 {
        stroke-width: 2.42px;
      }

      .st1 {
        stroke: url(#linear-gradient);
        stroke-miterlimit: 4;
        stroke-width: 2.42px;
      }

      .st6 {
        fill: #fff;
      }

      .st3 {
        stroke: url(#linear-gradient2);
      }

      .st7, .st8 {
        fill: #666;
      }

      .st8 {
        fill-rule: evenodd;
      }

      .st9 {
        display: none;
      }

      .st4 {
        stroke: url(#linear-gradient3);
      }

      .st10 {
        fill: #fafafa;
      }

      .st11 {
        fill: #eaeaea;
      }

      .st12 {
        clip-path: url(#clippath);
      }

      .st13 {
        opacity: .5;
      }

      .st5 {
        stroke: url(#linear-gradient1);
      }
    </style>
    <linearGradient id="linear-gradient" x1="-1218.58" y1="5480.11" x2="-1773.12" y2="5480.11" gradientTransform="translate(-2215.93 -4331.54) rotate(-45)" gradientUnits="userSpaceOnUse">
      <stop offset="0" stop-color="#c9c9c9" stop-opacity="0"/>
      <stop offset=".21" stop-color="#c9c9c9"/>
      <stop offset=".79" stop-color="#c9c9c9"/>
      <stop offset="1" stop-color="#c9c9c9" stop-opacity="0"/>
    </linearGradient>
    <linearGradient id="linear-gradient1" x1="796.57" y1="601.85" x2="404.17" y2="601.85" gradientTransform="translate(0 1200.52) scale(1 -1)" gradientUnits="userSpaceOnUse">
      <stop offset="0" stop-color="#c9c9c9" stop-opacity="0"/>
      <stop offset=".21" stop-color="#c9c9c9"/>
      <stop offset=".79" stop-color="#c9c9c9"/>
      <stop offset="1" stop-color="#c9c9c9" stop-opacity="0"/>
    </linearGradient>
    <linearGradient id="linear-gradient2" x1="599.5" y1="796.5" x2="599.5" y2="404.1" gradientTransform="translate(0 1200.52) scale(1 -1)" gradientUnits="userSpaceOnUse">
      <stop offset="0" stop-color="#c9c9c9" stop-opacity="0"/>
      <stop offset=".21" stop-color="#c9c9c9"/>
      <stop offset=".79" stop-color="#c9c9c9"/>
      <stop offset="1" stop-color="#c9c9c9" stop-opacity="0"/>
    </linearGradient>
    <linearGradient id="linear-gradient3" x1="404.27" y1="795.36" x2="796.4" y2="403.24" gradientTransform="translate(0 1200.52) scale(1 -1)" gradientUnits="userSpaceOnUse">
      <stop offset="0" stop-color="#c9c9c9" stop-opacity="0"/>
      <stop offset=".21" stop-color="#c9c9c9"/>
      <stop offset=".79" stop-color="#c9c9c9"/>
      <stop offset="1" stop-color="#c9c9c9" stop-opacity="0"/>
    </linearGradient>
    <clipPath id="clippath">
      <rect class="st2" x="581.36" y="580.54" width="38.69" height="38.69"/>
    </clipPath>
  </defs>
  <rect class="st11" y="0" width="1200" height="1200" rx="3" ry="3"/>
  <g class="st13">
    <g class="st13">
      <path class="st10" d="M600.71,736.5c-75.45,0-136.62-61.17-136.62-136.62s61.17-136.62,136.62-136.62,136.62,61.17,136.62,136.62-61.17,136.62-136.62,136.62Z"/>
      <path class="st0" d="M600.71,736.5c-75.45,0-136.62-61.17-136.62-136.62s61.17-136.62,136.62-136.62,136.62,61.17,136.62,136.62-61.17,136.62-136.62,136.62Z"/>
    </g>
    <path class="st1" d="M405.99,796.6l391.44-391.44"/>
    <path class="st5" d="M404.85,598.67h391.73"/>
    <path class="st3" d="M599.5,795.74v-391.73"/>
    <path class="st4" d="M795.72,796.6l-391.44-391.44"/>
    <path class="st6" d="M600.71,656.7c-31.38,0-56.83-25.44-56.83-56.82s25.44-56.83,56.83-56.83,56.82,25.44,56.82,56.83-25.44,56.82-56.82,56.82Z"/>
    <g class="st9">
      <g class="st12">
        <path class="st8" d="M616.43,586.58h-31.43v16.18l3.55-3.55.53-.53h9.07l.07-.07,8.46-8.46h2.57l7.18,7.18v-10.74h0ZM600.71,601.23l3.7,3.7,1.28,1.28-2.57,2.57-1.28-1.28-5.2-5.2h-6.07l-5.51,5.51-.07.07v2.88c0,1.34,1.08,2.42,2.42,2.42h26.6c1.34,0,2.42-1.08,2.42-2.42h0v-8.32l-8.46-8.46-7.18,7.18-.07.07h0ZM581.36,606.68v4.09c0,3.34,2.71,6.04,6.05,6.04h26.6c3.34,0,6.04-2.71,6.04-6.04h0v-7.11l1.36-1.35-1.28-1.28-.07-.07v-17.99h-38.69v23.43l-.15.15.15.15h0Z"/>
      </g>
    </g>
    <g>
      <path class="st7" d="M618.15,565.23s-16.19,3.22-22.97,14.87c-2.01,3.46-3.58,6.92-4.79,10.08l-10.11,9.4s6.91-4.9,17.07,1.01c10.63,6.18,9.66,14.54,9.66,14.54l3.1-13.37c2.18-2.63,4.44-5.72,6.47-9.2,6.78-11.65,1.57-27.32,1.57-27.32M607.83,588.57c-3,.07-5.48-2.31-5.55-5.3-.07-3,2.31-5.48,5.3-5.55,3-.07,5.48,2.31,5.55,5.31.07,3-2.31,5.48-5.3,5.55"/>
      <path class="st7" d="M596,603.29c-5.28-3.07-12.07-1.27-15.14,4.01-.92,1.59-1.44,3.39-1.5,5.22l-.41,18.89c0,.25.13.49.34.61.22.13.49.13.7,0l16.22-9.7c1.56-.95,2.87-2.29,3.79-3.88,3.07-5.28,1.27-12.07-4.01-15.14M590.71,617.37c-2.72.02-4.94-2.16-4.96-4.88-.02-2.72,2.16-4.94,4.88-4.96,2.72-.02,4.94,2.16,4.96,4.88.02,2.72-2.16,4.94-4.88,4.96"/>
    </g>
    <path class="st0" d="M600.71,656.7c-31.38,0-56.83-25.44-56.83-56.82s25.44-56.83,56.83-56.83,56.82,25.44,56.82,56.83-25.44,56.82-56.82,56.82Z"/>
  </g>
</svg>