<?xml version="1.0" encoding="UTF-8"?>
<svg id="Layer_1" xmlns="http://www.w3.org/2000/svg" version="1.1" viewBox="0 0 122.22 198.9">
  <!-- Generator: Adobe Illustrator 30.0.0, SVG Export Plug-In . SVG Version: 2.1.1 Build 123)  -->
  <defs>
    <style>
      .st0 {
        fill: #fff;
      }
    </style>
  </defs>
  <path class="st0" d="M116.55,0s-48.14,9.58-68.3,44.23c-5.99,10.3-10.65,20.58-14.24,29.96L3.94,102.13s20.54-14.58,50.76,2.99c31.59,18.38,28.72,43.24,28.72,43.24l9.22-39.75c6.48-7.82,13.21-17.02,19.23-27.37C132.02,46.59,116.55.01,116.55.01M85.89,69.42c-8.92.2-16.31-6.86-16.51-15.77-.2-8.92,6.86-16.31,15.77-16.51,8.92-.2,16.31,6.86,16.51,15.78.2,8.91-6.86,16.31-15.77,16.51"/>
  <path class="st0" d="M50.69,113.19c-15.7-9.13-35.91-3.78-45.03,11.92-2.74,4.71-4.28,10.07-4.45,15.52l-1.21,56.17c-.02.75.38,1.45,1.02,1.82.65.38,1.45.37,2.09,0l48.23-28.85c4.63-2.83,8.53-6.82,11.27-11.54,9.13-15.7,3.78-35.9-11.92-45.03M34.97,155.06c-8.08.07-14.69-6.43-14.75-14.51-.07-8.08,6.43-14.69,14.51-14.75,8.08-.07,14.69,6.43,14.75,14.51.07,8.08-6.43,14.69-14.51,14.75"/>
</svg>